<?xml version="1.0" encoding="UTF-8" standalone="no"?>
<!-- Generator: Adobe Illustrator 17.0.1, SVG Export Plug-In . SVG Version: 6.00 Build 0)  -->

<svg
   xmlns:dc="http://purl.org/dc/elements/1.1/"
   xmlns:cc="http://creativecommons.org/ns#"
   xmlns:rdf="http://www.w3.org/1999/02/22-rdf-syntax-ns#"
   xmlns:svg="http://www.w3.org/2000/svg"
   xmlns="http://www.w3.org/2000/svg"
   xmlns:sodipodi="http://sodipodi.sourceforge.net/DTD/sodipodi-0.dtd"
   xmlns:inkscape="http://www.inkscape.org/namespaces/inkscape"
   version="1.1"
   id="Layer_1"
   x="0px"
   y="0px"
   width="185px"
   height="188px"
   viewBox="0 0 185 188"
   enable-background="new 0 0 185 188"
   xml:space="preserve"
   inkscape:version="0.91 r13725"
   sodipodi:docname="logos.svg"
   inkscape:export-filename="/home/alessandro/Documenti/GitHub/GDGCatania-Website/img/sprites/logos.png"
   inkscape:export-xdpi="89.521278"
   inkscape:export-ydpi="89.521278"><metadata
     id="metadata235"><rdf:RDF><cc:Work
         rdf:about=""><dc:format>image/svg+xml</dc:format><dc:type
           rdf:resource="http://purl.org/dc/dcmitype/StillImage" /></cc:Work></rdf:RDF></metadata><defs
     id="defs233"><filter
       style="color-interpolation-filters:sRGB;"
       inkscape:label="Greyscale"
       id="filter4544"><feColorMatrix
         values="0.21 0.72 0.072 0 0 0.21 0.72 0.072 0 0 0.21 0.72 0.072 0 0 0 0 0 1 0 "
         id="feColorMatrix4546" /></filter><filter
       style="color-interpolation-filters:sRGB;"
       inkscape:label="Greyscale"
       id="filter4548"><feColorMatrix
         values="0.21 0.72 0.072 0 0 0.21 0.72 0.072 0 0 0.21 0.72 0.072 0 0 0 0 0 1 0 "
         id="feColorMatrix4550" /></filter><filter
       style="color-interpolation-filters:sRGB;"
       inkscape:label="Greyscale"
       id="filter4552"><feColorMatrix
         values="0.21 0.72 0.072 0 0 0.21 0.72 0.072 0 0 0.21 0.72 0.072 0 0 0 0 0 1 0 "
         id="feColorMatrix4554" /></filter><filter
       style="color-interpolation-filters:sRGB;"
       inkscape:label="Greyscale"
       id="filter4556"><feColorMatrix
         values="0.21 0.72 0.072 0 0 0.21 0.72 0.072 0 0 0.21 0.72 0.072 0 0 0 0 0 1 0 "
         id="feColorMatrix4558" /></filter><filter
       style="color-interpolation-filters:sRGB;"
       inkscape:label="Greyscale"
       id="filter4560"><feColorMatrix
         values="0.21 0.72 0.072 0 0 0.21 0.72 0.072 0 0 0.21 0.72 0.072 0 0 0 0 0 1 0 "
         id="feColorMatrix4562" /></filter><filter
       style="color-interpolation-filters:sRGB;"
       inkscape:label="Greyscale"
       id="filter4564"><feColorMatrix
         values="0.21 0.72 0.072 0 0 0.21 0.72 0.072 0 0 0.21 0.72 0.072 0 0 0 0 0 1 0 "
         id="feColorMatrix4566" /></filter><filter
       style="color-interpolation-filters:sRGB;"
       inkscape:label="Greyscale"
       id="filter4568"><feColorMatrix
         values="0.21 0.72 0.072 0 0 0.21 0.72 0.072 0 0 0.21 0.72 0.072 0 0 0 0 0 1 0 "
         id="feColorMatrix4570" /></filter></defs><sodipodi:namedview
     pagecolor="#ffffff"
     bordercolor="#666666"
     borderopacity="1"
     objecttolerance="10"
     gridtolerance="10"
     guidetolerance="10"
     inkscape:pageopacity="0"
     inkscape:pageshadow="2"
     inkscape:window-width="1920"
     inkscape:window-height="1029"
     id="namedview231"
     showgrid="false"
     inkscape:zoom="2.5106383"
     inkscape:cx="22.933057"
     inkscape:cy="109.17572"
     inkscape:window-x="0"
     inkscape:window-y="25"
     inkscape:window-maximized="1"
     inkscape:current-layer="Layer_1" /><flowRoot
     xml:space="preserve"
     id="flowRoot3563"
     style="fill:black;stroke:none;stroke-opacity:1;stroke-width:1px;stroke-linejoin:miter;stroke-linecap:butt;fill-opacity:1;font-family:'Product Sans';font-style:normal;font-weight:normal;font-size:40px;line-height:125%;letter-spacing:0px;word-spacing:0px;-inkscape-font-specification:'Product Sans';font-stretch:normal;font-variant:normal;"><flowRegion
       id="flowRegion3565"><rect
         id="rect3567"
         width="158.00241"
         height="49.569386"
         x="201.37563"
         y="57.317078"
         style="-inkscape-font-specification:'Product Sans';font-family:'Product Sans';font-weight:normal;font-style:normal;font-stretch:normal;font-variant:normal;" /></flowRegion><flowPara
       id="flowPara3569" /></flowRoot><flowRoot
     xml:space="preserve"
     id="flowRoot3571"
     style="fill:black;stroke:none;stroke-opacity:1;stroke-width:1px;stroke-linejoin:miter;stroke-linecap:butt;fill-opacity:1;font-family:sans-serif;font-style:normal;font-weight:normal;font-size:40px;line-height:125%;letter-spacing:0px;word-spacing:0px"><flowRegion
       id="flowRegion3573"><rect
         id="rect3575"
         width="98.575478"
         height="42.809921"
         x="213.48633"
         y="59.570232" /></flowRegion><flowPara
       id="flowPara3577" /></flowRoot><text
     xml:space="preserve"
     style="font-style:normal;font-variant:normal;font-weight:bold;font-stretch:normal;font-size:19.47500038px;line-height:125%;font-family:'Product Sans';-inkscape-font-specification:'Product Sans, Bold';text-align:start;letter-spacing:0px;word-spacing:0px;writing-mode:lr-tb;text-anchor:start;fill:#4e4e4e;fill-opacity:1;stroke:none;stroke-width:1px;stroke-linecap:butt;stroke-linejoin:miter;stroke-opacity:1"
     x="66.383087"
     y="38.608253"
     id="text3579"
     sodipodi:linespacing="125%"><tspan
       sodipodi:role="line"
       id="tspan3581"
       x="66.383087"
       y="38.608253"
       style="font-style:normal;font-variant:normal;font-weight:bold;font-stretch:normal;font-size:19.47500038px;line-height:125%;font-family:'Product Sans';-inkscape-font-specification:'Product Sans, Bold';text-align:start;writing-mode:lr-tb;text-anchor:start;fill:#4e4e4e;fill-opacity:1">GDG Catania</tspan></text>
<circle
     id="circle5454"
     inkscape:export-xdpi="673.83429"
     inkscape:export-ydpi="673.83429"
     class="st0"
     cx="28.825703"
     cy="32.541763"
     r="23.499077"
     style="fill:#ffffff" /><path
     id="path5295"
     inkscape:connector-curvature="0"
     inkscape:export-xdpi="673.83429"
     inkscape:export-ydpi="673.83429"
     sodipodi:nodetypes="cccccccccccccccccccsscccccccccccscscscscsccccc"
     class="st1"
     d="m 22.308401,19.167808 -7.573916,0 -2.312035,0 c -3.08936,3.786958 -4.7636004,8.510691 -4.7636004,13.373943 0,9.467397 6.2983094,17.778774 15.3870134,20.369852 l 0,-9.507259 0,0.07973 0,-0.817186 0,-3.926479 0,-0.07973 0,-0.03986 5.760165,0 -1.833684,8.63028 3.507915,0 -0.47835,-0.797254 c 0.01995,2.730596 0.936769,5.182154 2.431624,6.975976 1.77389,-0.318901 3.487993,-0.837117 5.122361,-1.594509 l 0,-16.343717 0,0 0,-6.298309 c 0,-5.56085 -4.484557,-10.045407 -10.045405,-10.045407 l -4.26531,0 -0.936778,0.01993 z m -0.896914,0.876979 0,2.471489 -6.716866,8.63028 0,0.71753 6.716866,7.61378 0,2.471488 -9.327875,-9.965681 0,-0.817186 9.327875,-11.1217 z m 9.626849,6.537487 c 0.358769,0 0.637803,0.119588 0.896915,0.378695 0.259103,0.259109 0.378693,0.518217 0.378693,0.896913 0,0.378695 -0.11959,0.637803 -0.378693,0.916841 -0.259112,0.259108 -0.538146,0.378696 -0.896915,0.378696 -0.378693,0 -0.637804,-0.119588 -0.896906,-0.378696 -0.259111,-0.259107 -0.35877,-0.538146 -0.35877,-0.916841 0,-0.378696 0.11959,-0.637804 0.35877,-0.896913 0.239171,-0.259107 0.518213,-0.378695 0.896906,-0.378695 z m -0.737462,12.417238 1.514787,0 -2.112727,6.657075 -0.956701,0 1.554641,-6.657075 z"
     style="fill:#757575" /><path
     id="path5341"
     inkscape:connector-curvature="0"
     inkscape:export-xdpi="673.83429"
     inkscape:export-ydpi="673.83429"
     class="st2"
     d="m 49.77382,32.262712 c 0,0.09966 0,0.179383 0.01995,0.279039 0,11.580122 -9.387669,20.967793 -20.967792,20.967793 -0.0399,0 -0.07971,0 -0.139522,0 l 0,6.019271 c 15.048176,0 27.266103,-12.197993 27.266103,-27.266103 l -6.17872,0 0,0 z"
     style="fill:#f4b400" /><path
     id="path5293"
     inkscape:connector-curvature="0"
     inkscape:export-xdpi="673.83429"
     inkscape:export-ydpi="673.83429"
     sodipodi:nodetypes="cccccccccssccscscscscsccccc"
     class="st1"
     d="m 24.859616,19.167808 0,19.453008 3.946412,0 -1.833684,8.63028 3.507915,0 -0.47835,-0.797254 c 0.05976,5.202084 3.34847,9.427534 7.553985,9.866024 l 0,-20.828274 0,0 0,-6.298309 c 0,-5.56085 -4.484557,-10.045407 -10.045405,-10.045407 l -2.650873,0 0,0.01993 z m 6.17872,7.414466 c 0.358769,0 0.637803,0.119588 0.896915,0.378695 0.259103,0.259109 0.378693,0.518217 0.378693,0.896913 0,0.378695 -0.11959,0.637803 -0.378693,0.916841 -0.259112,0.259108 -0.538146,0.378696 -0.896915,0.378696 -0.378693,0 -0.637804,-0.119588 -0.896906,-0.378696 -0.259111,-0.259107 -0.35877,-0.538146 -0.35877,-0.916841 0,-0.378696 0.11959,-0.637804 0.35877,-0.896913 0.239171,-0.259107 0.518213,-0.378695 0.896906,-0.378695 z m -0.71753,12.417238 1.514787,0 -2.112728,6.657075 -0.956701,0 1.554642,-6.657075 z"
     style="fill:#757575" /><path
     id="path5337"
     inkscape:connector-curvature="0"
     inkscape:export-xdpi="673.83429"
     inkscape:export-ydpi="673.83429"
     class="st3"
     d="m 28.686438,4.9966087 0,6.5773503 c 0.0399,0 0.07971,0 0.139521,0 11.460533,0 20.788409,9.228221 20.947861,20.688753 l 6.178721,0 c 0,-15.048178 -12.217928,-27.2661033 -27.266103,-27.2661033 0,0 0,0 0,0 l 0,0 z"
     style="fill:#db4437" /><path
     id="path5339"
     inkscape:connector-curvature="0"
     inkscape:export-xdpi="673.83429"
     inkscape:export-ydpi="673.83429"
     class="st4"
     d="m 28.686438,4.9966087 c -15.048176,0 -27.2661032,12.1979943 -27.2661032,27.2661033 0,0 0,0 0,0 l 6.4378312,0 c 0.159453,-11.420671 9.407601,-20.609028 20.828272,-20.688753 0,0 0,-6.5773503 0,-6.5773503 z"
     style="fill:#4285f4" /><path
     id="path5343"
     inkscape:connector-curvature="0"
     inkscape:export-xdpi="673.83429"
     inkscape:export-ydpi="673.83429"
     class="st5"
     d="m 1.4203348,32.262712 c 0,15.048178 12.1979952,27.266103 27.2661032,27.266103 l 0,0 0,-6.019271 C 17.16611,53.429817 7.858166,44.062078 7.858166,32.541751 c 0,-0.09966 0,-0.179382 0.019949,-0.279039 l -6.4577628,0 0,0 z"
     style="fill:#0f9d58" /><text
     xml:space="preserve"
     style="font-style:normal;font-weight:bold;font-size:19.4749999px;line-height:125%;font-family:'Product Sans';letter-spacing:0px;word-spacing:0px;fill:#4e4e4e;fill-opacity:1;stroke:none;stroke-width:1px;stroke-linecap:butt;stroke-linejoin:miter;stroke-opacity:1;-inkscape-font-specification:'Product Sans, Bold';font-stretch:normal;font-variant:normal;text-anchor:start;text-align:start;writing-mode:lr;"
     x="65.559601"
     y="98.896637"
     id="text3579-0"
     sodipodi:linespacing="125%"><tspan
       sodipodi:role="line"
       id="tspan3581-6"
       x="65.559601"
       y="98.896637"
       style="font-style:normal;font-variant:normal;font-weight:bold;font-stretch:normal;font-family:'Product Sans';-inkscape-font-specification:'Product Sans, Bold';fill:#4e4e4e;fill-opacity:1;font-size:19.4749999px;text-anchor:start;text-align:start;writing-mode:lr;line-height:125%;">GDG Catania</tspan></text>
<circle
     id="circle5454-8"
     inkscape:export-xdpi="673.83429"
     inkscape:export-ydpi="673.83429"
     class="st0"
     cx="28.002207"
     cy="92.830154"
     r="23.499077"
     style="fill:#ffffff;filter:url(#filter4568)" /><path
     id="path5295-9"
     inkscape:connector-curvature="0"
     inkscape:export-xdpi="673.83429"
     inkscape:export-ydpi="673.83429"
     sodipodi:nodetypes="cccccccccccccccccccsscccccccccccscscscscsccccc"
     class="st1"
     d="m 21.484904,79.456193 -7.573916,0 -2.312035,0 c -3.08936,3.786958 -4.7636012,8.510691 -4.7636012,13.373943 0,9.467394 6.2983102,17.778774 15.3870142,20.369854 l 0,-9.50726 0,0.0797 0,-0.81719 0,-3.92648 0,-0.0797 0,-0.0399 5.760165,0 -1.833684,8.63028 3.507915,0 -0.47835,-0.79725 c 0.01995,2.7306 0.936769,5.18215 2.431624,6.97597 1.77389,-0.31889 3.487993,-0.83711 5.122361,-1.5945 l 0,-16.34372 0,0 0,-6.298309 c 0,-5.56085 -4.484557,-10.045407 -10.045405,-10.045407 l -4.26531,0 -0.936778,0.01993 z m -0.896914,0.876979 0,2.471489 -6.716866,8.63028 0,0.71753 6.716866,7.613779 0,2.47149 -9.327875,-9.965682 0,-0.817186 9.327875,-11.1217 z m 9.626849,6.537487 c 0.358769,0 0.637803,0.119588 0.896915,0.378695 0.259103,0.259109 0.378693,0.518217 0.378693,0.896913 0,0.378695 -0.11959,0.637803 -0.378693,0.916841 -0.259112,0.259108 -0.538146,0.378696 -0.896915,0.378696 -0.378693,0 -0.637804,-0.119588 -0.896906,-0.378696 -0.259111,-0.259107 -0.35877,-0.538146 -0.35877,-0.916841 0,-0.378696 0.11959,-0.637804 0.35877,-0.896913 0.239171,-0.259107 0.518213,-0.378695 0.896906,-0.378695 z m -0.737462,12.417241 1.514787,0 -2.112727,6.65707 -0.956701,0 1.554641,-6.65707 z"
     style="fill:#757575;filter:url(#filter4564)" /><path
     id="path5341-3"
     inkscape:connector-curvature="0"
     inkscape:export-xdpi="673.83429"
     inkscape:export-ydpi="673.83429"
     class="st2"
     d="m 48.950323,92.551097 c 0,0.09966 0,0.179383 0.01995,0.279039 0,11.580124 -9.387669,20.967794 -20.967792,20.967794 -0.0399,0 -0.07971,0 -0.139522,0 l 0,6.01927 c 15.048176,0 27.266103,-12.19799 27.266103,-27.266103 l -6.17872,0 0,0 z"
     style="fill:#f4b400;filter:url(#filter4560)" /><path
     id="path5293-1"
     inkscape:connector-curvature="0"
     inkscape:export-xdpi="673.83429"
     inkscape:export-ydpi="673.83429"
     sodipodi:nodetypes="cccccccccssccscscscscsccccc"
     class="st1"
     d="m 24.036119,79.456193 0,19.453007 3.946412,0 -1.833684,8.63028 3.507915,0 -0.47835,-0.79725 c 0.05976,5.20208 3.34847,9.42753 7.553985,9.86602 l 0,-20.828273 0,0 0,-6.298309 c 0,-5.56085 -4.484557,-10.045407 -10.045405,-10.045407 l -2.650873,0 0,0.01993 z m 6.17872,7.414466 c 0.358769,0 0.637803,0.119588 0.896915,0.378695 0.259103,0.259109 0.378693,0.518217 0.378693,0.896913 0,0.378695 -0.11959,0.637803 -0.378693,0.916841 -0.259112,0.259108 -0.538146,0.378696 -0.896915,0.378696 -0.378693,0 -0.637804,-0.119588 -0.896906,-0.378696 -0.259111,-0.259107 -0.35877,-0.538146 -0.35877,-0.916841 0,-0.378696 0.11959,-0.637804 0.35877,-0.896913 0.239171,-0.259107 0.518213,-0.378695 0.896906,-0.378695 z m -0.71753,12.417241 1.514787,0 -2.112728,6.65707 -0.956701,0 1.554642,-6.65707 z"
     style="fill:#757575;filter:url(#filter4556)" /><path
     id="path5337-4"
     inkscape:connector-curvature="0"
     inkscape:export-xdpi="673.83429"
     inkscape:export-ydpi="673.83429"
     class="st3"
     d="m 27.862941,65.284994 0,6.577351 c 0.0399,0 0.07971,0 0.139521,0 11.460533,0 20.788409,9.22822 20.947861,20.688752 l 6.178721,0 c 0,-15.048178 -12.217928,-27.266103 -27.266103,-27.266103 0,0 0,0 0,0 l 0,0 z"
     style="fill:#db4437;filter:url(#filter4552)" /><path
     id="path5339-8"
     inkscape:connector-curvature="0"
     inkscape:export-xdpi="673.83429"
     inkscape:export-ydpi="673.83429"
     class="st4"
     d="m 27.862941,65.284994 c -15.048176,0 -27.2661032,12.197994 -27.2661032,27.266103 0,0 0,0 0,0 l 6.437831,0 C 7.1941218,81.130426 16.44227,71.94207 27.862941,71.862345 c 0,0 0,-6.577351 0,-6.577351 z"
     style="fill:#4285f4;filter:url(#filter4548)" /><path
     id="path5343-9"
     inkscape:connector-curvature="0"
     inkscape:export-xdpi="673.83429"
     inkscape:export-ydpi="673.83429"
     class="st5"
     d="m 0.5968378,92.551097 c 0,15.048183 12.1979952,27.266103 27.2661032,27.266103 l 0,0 0,-6.01927 C 16.342613,113.7182 7.0346688,104.35046 7.0346688,92.830136 c 0,-0.09966 0,-0.179382 0.01995,-0.279039 l -6.457763,0 0,0 z"
     style="fill:#0f9d58;filter:url(#filter4544)" /><text
     xml:space="preserve"
     style="font-style:normal;font-weight:bold;font-size:19.4749999px;line-height:125%;font-family:'Product Sans';letter-spacing:0px;word-spacing:0px;fill:#e6e6e5;fill-opacity:1;stroke:none;stroke-width:1px;stroke-linecap:butt;stroke-linejoin:miter;stroke-opacity:1;-inkscape-font-specification:'Product Sans, Bold';font-stretch:normal;font-variant:normal;text-anchor:start;text-align:start;writing-mode:lr;"
     x="65.531113"
     y="160.29507"
     id="text3579-6"
     sodipodi:linespacing="125%"><tspan
       sodipodi:role="line"
       id="tspan3581-7"
       x="65.531113"
       y="160.29507"
       style="font-style:normal;font-variant:normal;font-weight:bold;font-stretch:normal;font-family:'Product Sans';-inkscape-font-specification:'Product Sans, Bold';fill:#e6e6e5;fill-opacity:1;font-size:19.4749999px;text-anchor:start;text-align:start;writing-mode:lr;line-height:125%;">GDG Catania</tspan></text>
<circle
     id="circle5454-2"
     inkscape:export-xdpi="673.83429"
     inkscape:export-ydpi="673.83429"
     class="st0"
     cx="27.973719"
     cy="154.22859"
     r="23.499077"
     style="fill:#ffffff" /><path
     id="path5295-2"
     inkscape:connector-curvature="0"
     inkscape:export-xdpi="673.83429"
     inkscape:export-ydpi="673.83429"
     sodipodi:nodetypes="cccccccccccccccccccsscccccccccccscscscscsccccc"
     class="st1"
     d="m 21.456413,140.85464 -7.57392,0 -2.31203,0 c -3.08936,3.78695 -4.7636098,8.51069 -4.7636098,13.37394 0,9.46739 6.2983098,17.77877 15.3870198,20.36985 l 0,-9.50726 0,0.0797 0,-0.81719 0,-3.92648 0,-0.0797 0,-0.0399 5.76016,0 -1.83368,8.63028 3.50791,0 -0.47835,-0.79725 c 0.02,2.73059 0.93677,5.18215 2.43163,6.97597 1.77389,-0.3189 3.48799,-0.83711 5.12236,-1.5945 l 0,-16.34372 0,0 0,-6.29831 c 0,-5.56085 -4.48456,-10.0454 -10.04541,-10.0454 l -4.26531,0 -0.93677,0.0199 z m -0.89692,0.87697 0,2.47149 -6.71686,8.63028 0,0.71753 6.71686,7.61378 0,2.47149 -9.32787,-9.96568 0,-0.81719 9.32787,-11.1217 z m 9.62685,6.53749 c 0.35877,0 0.6378,0.11959 0.89692,0.3787 0.2591,0.25911 0.37869,0.51821 0.37869,0.89691 0,0.37869 -0.11959,0.6378 -0.37869,0.91684 -0.25912,0.25911 -0.53815,0.3787 -0.89692,0.3787 -0.37869,0 -0.6378,-0.11959 -0.8969,-0.3787 -0.25912,-0.25911 -0.35877,-0.53815 -0.35877,-0.91684 0,-0.3787 0.11959,-0.6378 0.35877,-0.89691 0.23917,-0.25911 0.51821,-0.3787 0.8969,-0.3787 z m -0.73746,12.41724 1.51479,0 -2.11273,6.65707 -0.9567,0 1.55464,-6.65707 z"
     style="fill:#757575" /><path
     id="path5341-1"
     inkscape:connector-curvature="0"
     inkscape:export-xdpi="673.83429"
     inkscape:export-ydpi="673.83429"
     class="st2"
     d="m 48.921833,153.94954 c 0,0.0997 0,0.17938 0.0199,0.27904 0,11.58012 -9.38767,20.96779 -20.9678,20.96779 -0.0399,0 -0.0797,0 -0.13952,0 l 0,6.01927 c 15.04818,0 27.2661,-12.19799 27.2661,-27.2661 l -6.17872,0 0,0 z"
     style="fill:#f4b400" /><path
     id="path5293-5"
     inkscape:connector-curvature="0"
     inkscape:export-xdpi="673.83429"
     inkscape:export-ydpi="673.83429"
     sodipodi:nodetypes="cccccccccssccscscscscsccccc"
     class="st1"
     d="m 24.007623,140.85464 0,19.453 3.94641,0 -1.83368,8.63028 3.50791,0 -0.47835,-0.79725 c 0.0598,5.20208 3.34847,9.42753 7.55399,9.86602 l 0,-20.82827 0,0 0,-6.29831 c 0,-5.56085 -4.48456,-10.04541 -10.04541,-10.04541 l -2.65087,0 0,0.0199 z m 6.17872,7.41446 c 0.35877,0 0.6378,0.11959 0.89692,0.3787 0.2591,0.25911 0.37869,0.51821 0.37869,0.89691 0,0.37869 -0.11959,0.6378 -0.37869,0.91684 -0.25912,0.25911 -0.53815,0.3787 -0.89692,0.3787 -0.37869,0 -0.6378,-0.11959 -0.8969,-0.3787 -0.25912,-0.25911 -0.35877,-0.53815 -0.35877,-0.91684 0,-0.3787 0.11959,-0.6378 0.35877,-0.89691 0.23917,-0.25911 0.51821,-0.3787 0.8969,-0.3787 z m -0.71753,12.41724 1.51479,0 -2.11273,6.65707 -0.9567,0 1.55464,-6.65707 z"
     style="fill:#757575" /><path
     id="path5337-0"
     inkscape:connector-curvature="0"
     inkscape:export-xdpi="673.83429"
     inkscape:export-ydpi="673.83429"
     class="st3"
     d="m 27.834443,126.68344 0,6.57735 c 0.0399,0 0.0797,0 0.13952,0 11.46054,0 20.78841,9.22822 20.94787,20.68875 l 6.17872,0 c 0,-15.04818 -12.21793,-27.2661 -27.26611,-27.2661 0,0 0,0 0,0 l 0,0 z"
     style="fill:#db4437" /><path
     id="path5339-9"
     inkscape:connector-curvature="0"
     inkscape:export-xdpi="673.83429"
     inkscape:export-ydpi="673.83429"
     class="st4"
     d="m 27.834443,126.68344 c -15.04817,0 -27.2660998,12.19799 -27.2660998,27.2661 0,0 0,0 0,0 l 6.43783,0 c 0.15945,-11.42067 9.4075998,-20.60903 20.8282698,-20.68875 0,0 0,-6.57735 0,-6.57735 z"
     style="fill:#4285f4" /><path
     id="path5343-0"
     inkscape:connector-curvature="0"
     inkscape:export-xdpi="673.83429"
     inkscape:export-ydpi="673.83429"
     class="st5"
     d="m 0.5683432,153.94954 c 0,15.04817 12.1979998,27.2661 27.2660998,27.2661 l 0,0 0,-6.01927 c -11.52032,-0.0797 -20.8282698,-9.44747 -20.8282698,-20.96779 0,-0.0997 0,-0.17938 0.0199,-0.27904 l -6.45776,0 0,0 z"
     style="fill:#0f9d58" /></svg>